<svg xmlns="http://www.w3.org/2000/svg" viewBox="0 0 64 64" width="64" height="64">
  <rect x="26" y="26" width="12" height="12" rx="3" fill="#1E293B"/>
  <rect x="16" y="30" width="32" height="4" rx="2" fill="#334155"/>
  <rect x="30" y="16" width="4" height="32" rx="2" fill="#334155"/>
  <circle cx="16" cy="16" r="5" fill="#1E293B" stroke="#3B82F6" stroke-width="1.5"/>
  <circle cx="48" cy="16" r="5" fill="#1E293B" stroke="#3B82F6" stroke-width="1.5"/>
  <circle cx="16" cy="48" r="5" fill="#1E293B" stroke="#3B82F6" stroke-width="1.5"/>
  <circle cx="48" cy="48" r="5" fill="#1E293B" stroke="#3B82F6" stroke-width="1.5"/>
  <ellipse cx="16" cy="16" rx="9" ry="2.5" fill="#3B82F6" opacity="0.7" transform="rotate(-30 16 16)"/>
  <ellipse cx="16" cy="16" rx="9" ry="2.5" fill="#3B82F6" opacity="0.7" transform="rotate(60 16 16)"/>
  <ellipse cx="48" cy="16" rx="9" ry="2.5" fill="#60A5FA" opacity="0.7" transform="rotate(30 48 16)"/>
  <ellipse cx="48" cy="16" rx="9" ry="2.5" fill="#60A5FA" opacity="0.7" transform="rotate(-60 48 16)"/>
  <ellipse cx="16" cy="48" rx="9" ry="2.5" fill="#60A5FA" opacity="0.7" transform="rotate(30 16 48)"/>
  <ellipse cx="16" cy="48" rx="9" ry="2.5" fill="#60A5FA" opacity="0.7" transform="rotate(-60 16 48)"/>
  <ellipse cx="48" cy="48" rx="9" ry="2.5" fill="#3B82F6" opacity="0.7" transform="rotate(-30 48 48)"/>
  <ellipse cx="48" cy="48" rx="9" ry="2.5" fill="#3B82F6" opacity="0.7" transform="rotate(60 48 48)"/>
  <circle cx="32" cy="32" r="4" fill="#0F172A"/>
  <circle cx="32" cy="32" r="2.5" fill="#F59E0B"/>
  <circle cx="31" cy="31" r="0.8" fill="#FEF3C7" opacity="0.8"/>
</svg>
